<?xml version="1.0" encoding="UTF-8"?>
<svg id="Layer_1" data-name="Layer 1" xmlns="http://www.w3.org/2000/svg" xmlns:xlink="http://www.w3.org/1999/xlink" viewBox="0 0 393.85 162">
  <defs>
    <style>
      .cls-1 {
        fill: url(#linear-gradient);
      }

      .cls-1, .cls-2 {
        stroke-width: 0px;
      }

      .cls-2 {
        fill: #002854;
      }
    </style>
    <linearGradient id="linear-gradient" x1="50.38" y1="105.85" x2="104.73" y2="51.51" gradientUnits="userSpaceOnUse">
      <stop offset="0" stop-color="#ff6d69"/>
      <stop offset="1" stop-color="#ffc600"/>
    </linearGradient>
  </defs>
  <g>
    <path class="cls-2" d="M181.28,44.93v-23.86h-9.67v-3.66h23.47v3.66h-9.67v23.86h-4.13Z"/>
    <path class="cls-2" d="M204.08,45.32c-1.55,0-2.91-.33-4.09-.98-1.18-.65-2.1-1.58-2.77-2.77-.67-1.19-1-2.55-1-4.07v-12.58h3.93v11.91c0,1.55.45,2.78,1.36,3.7.9.92,2.12,1.38,3.64,1.38,1.05,0,2-.23,2.85-.69.85-.46,1.54-1.11,2.06-1.95v-14.35h3.93v20.01h-3.93v-2.04c-1.55,1.63-3.54,2.44-5.98,2.44Z"/>
    <path class="cls-2" d="M218.63,44.93v-20.01h3.93v2.04c1.55-1.62,3.55-2.44,6.01-2.44,1.55,0,2.9.33,4.07.98,1.17.66,2.08,1.57,2.75,2.75.67,1.18,1,2.54,1,4.09v12.58h-3.93v-11.91c0-1.57-.45-2.81-1.34-3.72-.89-.9-2.11-1.36-3.66-1.36-1.05,0-1.99.23-2.81.69-.83.46-1.53,1.11-2.1,1.95v14.35h-3.93Z"/>
    <path class="cls-2" d="M250.78,53.34c-1.44,0-2.86-.17-4.25-.51-1.39-.34-2.65-.83-3.77-1.45l1.53-3.07c1.15.58,2.25,1,3.28,1.28,1.03.28,2.06.41,3.09.41,1.78,0,3.13-.39,4.03-1.18s1.36-1.97,1.36-3.54v-2.28c-1.73,1.39-3.73,2.08-6.01,2.08-1.86,0-3.55-.46-5.07-1.38-1.52-.92-2.73-2.16-3.64-3.71-.9-1.56-1.36-3.28-1.36-5.17s.46-3.65,1.38-5.21c.92-1.56,2.14-2.79,3.68-3.7,1.53-.9,3.24-1.36,5.13-1.36,1.1,0,2.16.17,3.16.51,1.01.34,1.95.85,2.81,1.53v-1.69h3.85v20.32c0,2.62-.79,4.62-2.36,6.01-1.57,1.39-3.85,2.08-6.84,2.08ZM250.55,41.71c1.13,0,2.17-.21,3.13-.63.96-.42,1.75-1,2.38-1.73v-9.04c-.6-.71-1.39-1.27-2.36-1.69-.97-.42-2.02-.63-3.14-.63-1.26,0-2.39.29-3.4.88-1.01.59-1.81,1.4-2.4,2.44-.59,1.04-.88,2.21-.88,3.52s.29,2.44.88,3.48c.59,1.04,1.4,1.86,2.42,2.48,1.02.62,2.15.92,3.38.92Z"/>
    <path class="cls-2" d="M271.54,45.32c-1.73,0-3.35-.26-4.85-.77-1.51-.51-2.81-1.25-3.91-2.22l2.12-2.59c1.05.84,2.12,1.47,3.22,1.89,1.1.42,2.2.63,3.3.63,1.42,0,2.57-.27,3.46-.81.89-.54,1.34-1.25,1.34-2.14,0-.73-.26-1.31-.79-1.73-.52-.42-1.34-.71-2.44-.86l-3.62-.51c-2.02-.29-3.52-.9-4.5-1.85s-1.47-2.2-1.47-3.77c0-1.18.33-2.23.98-3.14.65-.92,1.57-1.62,2.75-2.12,1.18-.5,2.54-.75,4.09-.75s2.9.2,4.23.61c1.32.41,2.6,1.05,3.83,1.95l-1.97,2.59c-1.13-.73-2.2-1.27-3.22-1.61-1.02-.34-2.07-.51-3.14-.51-1.21,0-2.18.26-2.91.77-.73.51-1.1,1.17-1.1,1.99,0,.76.26,1.33.79,1.71.52.38,1.35.66,2.48.85l3.66.51c1.99.29,3.5.9,4.52,1.85,1.02.94,1.53,2.2,1.53,3.77,0,1.18-.37,2.25-1.12,3.2-.75.96-1.74,1.71-2.99,2.26-1.24.55-2.67.83-4.27.83Z"/>
    <path class="cls-2" d="M291.04,45.28c-1.91,0-3.38-.45-4.4-1.34-1.02-.89-1.53-2.21-1.53-3.97v-11.75h-4.25v-3.3h4.25v-5.07l3.89-.98v6.05h5.94v3.3h-5.94v10.89c0,1,.23,1.71.69,2.14.46.43,1.21.65,2.26.65.55,0,1.04-.04,1.47-.12s.9-.21,1.4-.39v3.34c-.52.18-1.13.32-1.83.41-.69.09-1.34.14-1.95.14Z"/>
    <path class="cls-2" d="M307.04,45.28c-1.97,0-3.74-.45-5.33-1.36s-2.85-2.15-3.79-3.73c-.94-1.59-1.42-3.35-1.42-5.29s.45-3.68,1.36-5.23c.9-1.55,2.12-2.78,3.64-3.72,1.52-.93,3.22-1.4,5.11-1.4s3.48.47,4.93,1.4c1.45.93,2.61,2.19,3.46,3.77.85,1.59,1.28,3.37,1.28,5.37v1.06h-15.8c.18,1.13.58,2.12,1.2,2.97.62.85,1.41,1.53,2.38,2.04.97.51,2.02.77,3.14.77,1,0,1.94-.16,2.83-.47.89-.31,1.64-.73,2.24-1.26l2.48,2.44c-1.13.89-2.32,1.55-3.58,1.99-1.26.43-2.63.65-4.13.65ZM300.51,33.22h11.87c-.18-1.02-.56-1.93-1.12-2.73-.56-.8-1.25-1.43-2.06-1.89-.81-.46-1.72-.69-2.71-.69s-1.91.23-2.75.69c-.84.46-1.54,1.08-2.1,1.87-.56.79-.94,1.7-1.12,2.75Z"/>
    <path class="cls-2" d="M320.01,44.93v-20.01h3.93v2.04c1.55-1.62,3.55-2.44,6.01-2.44,1.55,0,2.9.33,4.07.98,1.17.66,2.08,1.57,2.75,2.75.67,1.18,1,2.54,1,4.09v12.58h-3.93v-11.91c0-1.57-.45-2.81-1.34-3.72-.89-.9-2.11-1.36-3.66-1.36-1.05,0-1.99.23-2.81.69-.83.46-1.53,1.11-2.1,1.95v14.35h-3.93Z"/>
    <path class="cls-2" d="M176.19,135.76v-58.31h28.41c4,0,7.51.76,10.54,2.29,3.03,1.53,5.39,3.65,7.08,6.37,1.69,2.72,2.54,5.86,2.54,9.41s-1.03,6.93-3.08,9.79c-2.06,2.86-4.8,4.98-8.25,6.37l12.91,24.07h-13.49l-11.41-22.32h-13.16v22.32h-12.08ZM188.27,103.52h15.33c2.72,0,4.9-.72,6.54-2.17,1.64-1.44,2.46-3.33,2.46-5.66s-.82-4.3-2.46-5.75c-1.64-1.44-3.82-2.17-6.54-2.17h-15.33v15.74Z"/>
    <path class="cls-2" d="M232.84,135.76v-58.31h29.24c3.83,0,7.22.79,10.16,2.37,2.94,1.58,5.23,3.75,6.87,6.5,1.64,2.75,2.46,5.9,2.46,9.45s-.82,6.53-2.46,9.25c-1.64,2.72-3.94,4.86-6.91,6.41-2.97,1.56-6.35,2.33-10.12,2.33h-17.16v21.99h-12.08ZM244.91,103.77h15.83c2.61,0,4.71-.74,6.29-2.21,1.58-1.47,2.37-3.37,2.37-5.71s-.79-4.4-2.37-5.87c-1.58-1.47-3.68-2.21-6.29-2.21h-15.83v15.99Z"/>
    <path class="cls-2" d="M275.4,135.76l23.99-58.31h13.99l23.66,58.31h-13.08l-5.91-15.24h-24.16l-5.91,15.24h-12.58ZM297.64,110.77h16.74l-8.25-21.49-8.5,21.49Z"/>
    <path class="cls-2" d="M348.21,100.35v-20.58h-8.41v-2.33h19.41v2.33h-8.41v20.58h-2.58ZM363.62,100.35v-22.91h3.33l8.08,16.33,8-16.33h3.25v22.91h-2.58v-19.49l-8.75,17.91-8.75-17.91v19.49h-2.58Z"/>
  </g>
  <g>
    <g>
      <path class="cls-2" d="M41.65,28.89h74.52c12.29,0,22.29,10,22.29,22.29s-10,22.29-22.29,22.29h-.52v7.9h.52c16.65,0,30.19-13.54,30.19-30.19s-13.54-30.19-30.19-30.19H41.65l-12.96-12.96L11.78,24.94l16.91,16.91,12.96-12.96Z"/>
      <path class="cls-2" d="M115.12,125.96H38.94c-12.29,0-22.29-10-22.29-22.29s10-22.29,22.29-22.29h.52v-7.9h-.52c-16.65,0-30.19,13.54-30.19,30.19s13.54,30.19,30.19,30.19h76.18v13.01l25.44-16.96-25.44-16.96v13.01Z"/>
    </g>
    <path class="cls-1" d="M80.1,91.14h-5.57v-7.98h5.57v7.98ZM116.32,77.42c0,5.34-4.34,9.68-9.68,9.68h-.35v17.19h-11.87v9.82h-34.21v-9.82h-11.38v-17.19h-.35c-5.34,0-9.68-4.34-9.68-9.68s4.34-9.68,9.68-9.68h.35v-14.67h25.7v-6.05c-1.31-.89-2.17-2.4-2.17-4.1,0-2.74,2.22-4.96,4.96-4.96s4.96,2.22,4.96,4.96c0,1.71-.86,3.21-2.17,4.1v6.05h26.19v14.67h.35c5.34,0,9.68,4.34,9.68,9.68ZM48.82,73.32h-.35c-2.27,0-4.11,1.84-4.11,4.11s1.84,4.11,4.11,4.11h.35v-8.22ZM88.84,104.3h-23.06v4.25h23.06v-4.25ZM100.71,58.64h-46.32v40.08h46.32v-40.08ZM110.75,77.42c0-2.26-1.84-4.11-4.11-4.11h-.35v8.22h.35c2.27,0,4.11-1.84,4.11-4.11ZM63.48,78.68c2.74,0,4.96-2.22,4.96-4.96s-2.22-4.96-4.96-4.96-4.96,2.22-4.96,4.96,2.22,4.96,4.96,4.96ZM91.63,78.68c2.74,0,4.96-2.22,4.96-4.96s-2.22-4.96-4.96-4.96-4.96,2.22-4.96,4.96,2.22,4.96,4.96,4.96Z"/>
  </g>
</svg>